<?xml version="1.0" encoding="UTF-8"?>
  <svg width="800" height="816" viewBox="0 0 800 816" xmlns="http://www.w3.org/2000/svg">
    <rect width="100%" height="100%" fill="#ffffff"/>
    <path d="                                                                                                                                                                                                                                                                                                                                                                                                                                                                                                                                                                                                                                                                                                                                                                                                                                                                                                                                                                                                                                                                                                                                                                                                                                                                                                                                                                                              M336 225.17L344.65 225.17L344.65 223.42L336 223.42Z M344 225.17L352.65 225.17L352.65 221.67L344 221.67Z M352 225.17L360.65 225.17L360.65 219.92L352 219.92Z M360 225.17L368.65 225.17L368.65 219.92L360 219.92Z M368 225.17L376.65 225.17L376.65 219.92L368 219.92Z M376 225.17L384.65 225.17L384.65 219.92L376 219.92Z M384 225.17L392.65 225.17L392.65 219.92L384 219.92Z M392 225.17L400.65 225.17L400.65 219.92L392 219.92Z M400 225.17L408.65 225.17L408.65 219.92L400 219.92Z M408 225.17L416.65 225.17L416.65 219.92L408 219.92Z M416 225.17L424.65 225.17L424.65 223.42L416 223.42Z                                                                                 M264 241.17L272.65 241.17L272.65 239.42L264 239.42Z M272 241.17L280.65 241.17L280.65 237.67L272 237.67Z M280 241.17L288.65 241.17L288.65 237.67L280 237.67Z M288 241.17L296.65 241.17L296.65 237.67L288 237.67Z M296 241.17L304.65 241.17L304.65 235.92L296 235.92Z M304 241.17L312.65 241.17L312.65 235.92L304 235.92Z M312 241.17L320.65 241.17L320.65 235.92L312 235.92Z M320 241.17L328.65 241.17L328.65 235.92L320 235.92Z M328 241.17L336.65 241.17L336.65 235.92L328 235.92Z M336 241.17L344.65 241.17L344.65 235.92L336 235.92Z M344 241.17L352.65 241.17L352.65 230.67L344 230.67Z M352 241.17L360.65 241.17L360.65 235.92L352 235.92Z M360 241.17L368.65 241.17L368.65 235.92L360 235.92Z M368 241.17L376.65 241.17L376.65 235.92L368 235.92Z M376 241.17L384.65 241.17L384.65 235.92L376 235.92Z M384 241.17L392.65 241.17L392.65 235.92L384 235.92Z M392 241.17L400.65 241.17L400.65 235.92L392 235.92Z M400 241.17L408.65 241.17L408.65 235.92L400 235.92Z M408 241.17L416.65 241.17L416.65 234.17L408 234.17Z M416 241.17L424.65 241.17L424.65 234.17L416 234.17Z M424 241.17L432.65 241.17L432.65 235.92L424 235.92Z M432 241.17L440.65 241.17L440.65 235.92L432 235.92Z M440 241.17L448.65 241.17L448.65 235.92L440 235.92Z M448 241.17L456.65 241.17L456.65 235.92L448 235.92Z M456 241.17L464.65 241.17L464.65 235.92L456 235.92Z M464 241.17L472.65 241.17L472.65 235.92L464 235.92Z M472 241.17L480.65 241.17L480.65 235.92L472 235.92Z M480 241.17L488.65 241.17L488.65 235.92L480 235.92Z M488 241.17L496.65 241.17L496.65 235.92L488 235.92Z M496 241.17L504.65 241.17L504.65 235.92L496 235.92Z M504 241.17L512.65 241.17L512.65 235.92L504 235.92Z M512 241.17L520.65 241.17L520.65 237.67L512 237.67Z M520 241.17L528.65 241.17L528.65 237.67L520 237.67Z M528 241.17L536.65 241.17L536.65 239.42L528 239.42Z                                                              M224 257.17L232.65 257.17L232.65 255.42L224 255.42Z M232 257.17L240.65 257.17L240.65 253.67L232 253.67Z M240 257.17L248.65 257.17L248.65 251.92L240 251.92Z M248 257.17L256.65 257.17L256.65 250.17L248 250.17Z M256 257.17L264.65 257.17L264.65 251.92L256 251.92Z M264 257.17L272.65 257.17L272.65 251.92L264 251.92Z M272 257.17L280.65 257.17L280.65 253.67L272 253.67Z M280 257.17L288.65 257.17L288.65 253.67L280 253.67Z M288 257.17L296.65 257.17L296.65 253.67L288 253.67Z M296 257.17L304.65 257.17L304.65 255.42L296 255.42Z                          M504 257.17L512.65 257.17L512.65 255.42L504 255.42Z M512 257.17L520.65 257.17L520.65 253.67L512 253.67Z M520 257.17L528.65 257.17L528.65 253.67L520 253.67Z M528 257.17L536.65 257.17L536.65 251.92L528 251.92Z M536 257.17L544.65 257.17L544.65 251.92L536 251.92Z M544 257.17L552.65 257.17L552.65 250.17L544 250.17Z M552 257.17L560.65 257.17L560.65 251.92L552 251.92Z M560 257.17L568.65 257.17L568.65 255.42L560 255.42Z M568 257.17L576.65 257.17L576.65 255.42L568 255.42Z                                                      M200 273.17L208.65 273.17L208.65 271.42L200 271.42Z M208 273.17L216.65 273.17L216.65 269.67L208 269.67Z M216 273.17L224.65 273.17L224.65 267.92L216 267.92Z M224 273.17L232.65 273.17L232.65 267.92L224 267.92Z M232 273.17L240.65 273.17L240.65 269.67L232 269.67Z                                        M552 273.17L560.65 273.17L560.65 271.42L552 271.42Z M560 273.17L568.65 273.17L568.65 267.92L560 267.92Z M568 273.17L576.65 273.17L576.65 266.17L568 266.17Z M576 273.17L584.65 273.17L584.65 267.92L576 267.92Z                                                    M192 289.17L200.65 289.17L200.65 285.67L192 285.67Z M200 289.17L208.65 289.17L208.65 282.17L200 282.17Z M208 289.17L216.65 289.17L216.65 287.42L208 287.42Z                                M464 289.17L472.65 289.17L472.65 287.42L464 287.42Z M472 289.17L480.65 289.17L480.65 285.67L472 285.67Z M480 289.17L488.65 289.17L488.65 283.92L480 283.92Z M488 289.17L496.65 289.17L496.65 283.92L488 283.92Z M496 289.17L504.65 289.17L504.65 283.92L496 283.92Z M504 289.17L512.65 289.17L512.65 283.92L504 283.92Z M512 289.17L520.65 289.17L520.65 285.67L512 285.67Z M520 289.17L528.65 289.17L528.65 287.42L520 287.42Z       M576 289.17L584.65 289.17L584.65 285.67L576 285.67Z M584 289.17L592.65 289.17L592.65 282.17L584 282.17Z M592 289.17L600.65 289.17L600.65 285.67L592 285.67Z                                                 M184 305.17L192.65 305.17L192.65 299.92L184 299.92Z M192 305.17L200.65 305.17L200.65 298.17L192 298.17Z M200 305.17L208.65 305.17L208.65 303.42L200 303.42Z                  M344 305.17L352.65 305.17L352.65 303.42L344 303.42Z M352 305.17L360.65 305.17L360.65 303.42L352 303.42Z    M384 305.17L392.65 305.17L392.65 303.42L384 303.42Z      M432 305.17L440.65 305.17L440.65 303.42L432 303.42Z   M456 305.17L464.65 305.17L464.65 301.67L456 301.67Z M464 305.17L472.65 305.17L472.65 299.92L464 299.92Z M472 305.17L480.65 305.17L480.65 301.67L472 301.67Z     M512 305.17L520.65 305.17L520.65 303.42L512 303.42Z M520 305.17L528.65 305.17L528.65 299.92L520 299.92Z M528 305.17L536.65 305.17L536.65 299.92L528 299.92Z M536 305.17L544.65 305.17L544.65 303.42L536 303.42Z       M592 305.17L600.65 305.17L600.65 298.17L592 298.17Z M600 305.17L608.65 305.17L608.65 301.67L600 301.67Z                                               M176 321.17L184.65 321.17L184.65 317.67L176 317.67Z M184 321.17L192.65 321.17L192.65 314.17L184 314.17Z M192 321.17L200.65 321.17L200.65 319.42L192 319.42Z                   M344 321.17L352.65 321.17L352.65 319.42L344 319.42Z M352 321.17L360.65 321.17L360.65 314.17L352 314.17Z M360 321.17L368.65 321.17L368.65 315.92L360 315.92Z M368 321.17L376.65 321.17L376.65 315.92L368 315.92Z M376 321.17L384.65 321.17L384.65 314.17L376 314.17Z M384 321.17L392.65 321.17L392.65 314.17L384 314.17Z M392 321.17L400.65 321.17L400.65 314.17L392 314.17Z M400 321.17L408.65 321.17L408.65 315.92L400 315.92Z M408 321.17L416.65 321.17L416.65 315.92L408 315.92Z M416 321.17L424.65 321.17L424.65 314.17L416 314.17Z M424 321.17L432.65 321.17L432.65 314.17L424 314.17Z M432 321.17L440.65 321.17L440.65 319.42L432 319.42Z   M456 321.17L464.65 321.17L464.65 312.42L456 312.42Z         M528 321.17L536.65 321.17L536.65 319.42L528 319.42Z M536 321.17L544.65 321.17L544.65 314.17L536 314.17Z       M592 321.17L600.65 321.17L600.65 319.42L592 319.42Z M600 321.17L608.65 321.17L608.65 314.17L600 314.17Z M608 321.17L616.65 321.17L616.65 317.67L608 317.67Z                                              M176 337.17L184.65 337.17L184.65 328.42L176 328.42Z M184 337.17L192.65 337.17L192.65 335.42L184 335.42Z                                  M456 337.17L464.65 337.17L464.65 326.67L456 326.67Z  M472 337.17L480.65 337.17L480.65 333.67L472 333.67Z M480 337.17L488.65 337.17L488.65 328.42L480 328.42Z M488 337.17L496.65 337.17L496.65 326.67L488 326.67Z M496 337.17L504.65 337.17L504.65 326.67L496 326.67Z M504 337.17L512.65 337.17L512.65 326.67L504 326.67Z M512 337.17L520.65 337.17L520.65 330.17L512 330.17Z M520 337.17L528.65 337.17L528.65 335.42L520 335.42Z M528 337.17L536.65 337.17L536.65 335.42L528 335.42Z M536 337.17L544.65 337.17L544.65 330.17L536 330.17Z        M600 337.17L608.65 337.17L608.65 333.67L600 333.67Z M608 337.17L616.65 337.17L616.65 328.42L608 328.42Z                                             M168 353.17L176.65 353.17L176.65 351.42L168 351.42Z M176 353.17L184.65 353.17L184.65 342.67L176 342.67Z    M208 353.17L216.65 353.17L216.65 349.67L208 349.67Z M216 353.17L224.65 353.17L224.65 346.17L216 346.17Z M224 353.17L232.65 353.17L232.65 346.17L224 346.17Z M232 353.17L240.65 353.17L240.65 346.17L232 346.17Z M240 353.17L248.65 353.17L248.65 346.17L240 346.17Z M248 353.17L256.65 353.17L256.65 346.17L248 346.17Z M256 353.17L264.65 353.17L264.65 346.17L256 346.17Z M264 353.17L272.65 353.17L272.65 346.17L264 346.17Z M272 353.17L280.65 353.17L280.65 346.17L272 346.17Z M280 353.17L288.65 353.17L288.65 346.17L280 346.17Z M288 353.17L296.65 353.17L296.65 346.17L288 346.17Z M296 353.17L304.65 353.17L304.65 351.42L296 351.42Z   M320 353.17L328.65 353.17L328.65 351.42L320 351.42Z M328 353.17L336.65 353.17L336.65 346.17L328 346.17Z M336 353.17L344.65 353.17L344.65 346.17L336 346.17Z M344 353.17L352.65 353.17L352.65 346.17L344 346.17Z M352 353.17L360.65 353.17L360.65 346.17L352 346.17Z M360 353.17L368.65 353.17L368.65 346.17L360 346.17Z M368 353.17L376.65 353.17L376.65 346.17L368 346.17Z M376 353.17L384.65 353.17L384.65 346.17L376 346.17Z M384 353.17L392.65 353.17L392.65 346.17L384 346.17Z M392 353.17L400.65 353.17L400.65 346.17L392 346.17Z M400 353.17L408.65 353.17L408.65 347.92L400 347.92Z       M456 353.17L464.65 353.17L464.65 342.67L456 342.67Z  M472 353.17L480.65 353.17L480.65 346.17L472 346.17Z M480 353.17L488.65 353.17L488.65 339.17L480 339.17Z M488 353.17L496.65 353.17L496.65 339.17L488 339.17Z M496 353.17L504.65 353.17L504.65 339.17L496 339.17Z M504 353.17L512.65 353.17L512.65 339.17L504 339.17Z M512 353.17L520.65 353.17L520.65 339.17L512 339.17Z M520 353.17L528.65 353.17L528.65 349.67L520 349.67Z M528 353.17L536.65 353.17L536.65 351.42L528 351.42Z M536 353.17L544.65 353.17L544.65 346.17L536 346.17Z  M552 353.17L560.65 353.17L560.65 349.67L552 349.67Z M560 353.17L568.65 353.17L568.65 346.17L560 346.17Z M568 353.17L576.65 353.17L576.65 346.17L568 346.17Z M576 353.17L584.65 353.17L584.65 346.17L576 346.17Z M584 353.17L592.65 353.17L592.65 346.17L584 346.17Z M592 353.17L600.65 353.17L600.65 344.42L592 344.42Z M600 353.17L608.65 353.17L608.65 342.67L600 342.67Z M608 353.17L616.65 353.17L616.65 339.17L608 339.17Z M616 353.17L624.65 353.17L624.65 349.67L616 349.67Z                                            M168 369.17L176.65 369.17L176.65 360.42L168 360.42Z M176 369.17L184.65 369.17L184.65 367.42L176 367.42Z     M216 369.17L224.65 369.17L224.65 360.42L216 360.42Z M224 369.17L232.65 369.17L232.65 355.17L224 355.17Z M232 369.17L240.65 369.17L240.65 355.17L232 355.17Z M240 369.17L248.65 369.17L248.65 355.17L240 355.17Z M248 369.17L256.65 369.17L256.65 355.17L248 355.17Z M256 369.17L264.65 369.17L264.65 355.17L256 355.17Z M264 369.17L272.65 369.17L272.65 355.17L264 355.17Z M272 369.17L280.65 369.17L280.65 355.17L272 355.17Z M280 369.17L288.65 369.17L288.65 356.92L280 356.92Z M288 369.17L296.65 369.17L296.65 360.42L288 360.42Z     M328 369.17L336.65 369.17L336.65 362.17L328 362.17Z M336 369.17L344.65 369.17L344.65 355.17L336 355.17Z M344 369.17L352.65 369.17L352.65 355.17L344 355.17Z M352 369.17L360.65 369.17L360.65 355.17L352 355.17Z M360 369.17L368.65 369.17L368.65 355.17L360 355.17Z M368 369.17L376.65 369.17L376.65 355.17L368 355.17Z M376 369.17L384.65 369.17L384.65 355.17L376 355.17Z M384 369.17L392.65 369.17L392.65 356.92L384 356.92Z M392 369.17L400.65 369.17L400.65 356.92L392 356.92Z M400 369.17L408.65 369.17L408.65 367.42L400 367.42Z       M456 369.17L464.65 369.17L464.65 358.67L456 358.67Z  M472 369.17L480.65 369.17L480.65 367.42L472 367.42Z M480 369.17L488.65 369.17L488.65 360.42L480 360.42Z M488 369.17L496.65 369.17L496.65 358.67L488 358.67Z M496 369.17L504.65 369.17L504.65 358.67L496 358.67Z M504 369.17L512.65 369.17L512.65 358.67L504 358.67Z M512 369.17L520.65 369.17L520.65 363.92L512 363.92Z M520 369.17L528.65 369.17L528.65 367.42L520 367.42Z M528 369.17L536.65 369.17L536.65 367.42L528 367.42Z M536 369.17L544.65 369.17L544.65 362.17L536 362.17Z   M560 369.17L568.65 369.17L568.65 358.67L560 358.67Z M568 369.17L576.65 369.17L576.65 355.17L568 355.17Z M576 369.17L584.65 369.17L584.65 355.17L576 355.17Z M584 369.17L592.65 369.17L592.65 355.17L584 355.17Z M592 369.17L600.65 369.17L600.65 355.17L592 355.17Z M600 369.17L608.65 369.17L608.65 355.17L600 355.17Z M608 369.17L616.65 369.17L616.65 355.17L608 355.17Z M616 369.17L624.65 369.17L624.65 365.67L616 365.67Z                                            M168 385.17L176.65 385.17L176.65 376.42L168 376.42Z M176 385.17L184.65 385.17L184.65 383.42L176 383.42Z     M216 385.17L224.65 385.17L224.65 376.42L216 376.42Z M224 385.17L232.65 385.17L232.65 371.17L224 371.17Z M232 385.17L240.65 385.17L240.65 371.17L232 371.17Z M240 385.17L248.65 385.17L248.65 371.17L240 371.17Z M248 385.17L256.65 385.17L256.65 371.17L248 371.17Z M256 385.17L264.65 385.17L264.65 371.17L256 371.17Z M264 385.17L272.65 385.17L272.65 371.17L264 371.17Z M272 385.17L280.65 385.17L280.65 371.17L272 371.17Z M280 385.17L288.65 385.17L288.65 371.17L280 371.17Z M288 385.17L296.65 385.17L296.65 376.42L288 376.42Z     M328 385.17L336.65 385.17L336.65 378.17L328 378.17Z M336 385.17L344.65 385.17L344.65 371.17L336 371.17Z M344 385.17L352.65 385.17L352.65 371.17L344 371.17Z M352 385.17L360.65 385.17L360.65 371.17L352 371.17Z M360 385.17L368.65 385.17L368.65 371.17L360 371.17Z M368 385.17L376.65 385.17L376.65 371.17L368 371.17Z M376 385.17L384.65 385.17L384.65 371.17L376 371.17Z M384 385.17L392.65 385.17L392.65 371.17L384 371.17Z M392 385.17L400.65 385.17L400.65 371.17L392 371.17Z M400 385.17L408.65 385.17L408.65 383.42L400 383.42Z       M456 385.17L464.65 385.17L464.65 374.67L456 374.67Z         M528 385.17L536.65 385.17L536.65 383.42L528 383.42Z M536 385.17L544.65 385.17L544.65 378.17L536 378.17Z   M560 385.17L568.65 385.17L568.65 376.42L560 376.42Z M568 385.17L576.65 385.17L576.65 371.17L568 371.17Z M576 385.17L584.65 385.17L584.65 371.17L576 371.17Z M584 385.17L592.65 385.17L592.65 371.17L584 371.17Z M592 385.17L600.65 385.17L600.65 371.17L592 371.17Z M600 385.17L608.65 385.17L608.65 371.17L600 371.17Z M608 385.17L616.65 385.17L616.65 371.17L608 371.17Z M616 385.17L624.65 385.17L624.65 379.92L616 379.92Z                                            M168 401.17L176.65 401.17L176.65 392.42L168 392.42Z M176 401.17L184.65 401.17L184.65 399.42L176 399.42Z     M216 401.17L224.65 401.17L224.65 392.42L216 392.42Z M224 401.17L232.65 401.17L232.65 387.17L224 387.17Z M232 401.17L240.65 401.17L240.65 387.17L232 387.17Z M240 401.17L248.65 401.17L248.65 387.17L240 387.17Z M248 401.17L256.65 401.17L256.65 387.17L248 387.17Z M256 401.17L264.65 401.17L264.65 387.17L256 387.17Z M264 401.17L272.65 401.17L272.65 387.17L264 387.17Z M272 401.17L280.65 401.17L280.65 387.17L272 387.17Z M280 401.17L288.65 401.17L288.65 387.17L280 387.17Z M288 401.17L296.65 401.17L296.65 392.42L288 392.42Z     M328 401.17L336.65 401.17L336.65 394.17L328 394.17Z M336 401.17L344.65 401.17L344.65 387.17L336 387.17Z M344 401.17L352.65 401.17L352.65 387.17L344 387.17Z M352 401.17L360.65 401.17L360.65 387.17L352 387.17Z M360 401.17L368.65 401.17L368.65 387.17L360 387.17Z M368 401.17L376.65 401.17L376.65 387.17L368 387.17Z M376 401.17L384.65 401.17L384.65 387.17L376 387.17Z M384 401.17L392.65 401.17L392.65 387.17L384 387.17Z M392 401.17L400.65 401.17L400.65 387.17L392 387.17Z M400 401.17L408.65 401.17L408.65 399.42L400 399.42Z       M456 401.17L464.65 401.17L464.65 390.67L456 390.67Z         M528 401.17L536.65 401.17L536.65 399.42L528 399.42Z M536 401.17L544.65 401.17L544.65 394.17L536 394.17Z   M560 401.17L568.65 401.17L568.65 392.42L560 392.42Z M568 401.17L576.65 401.17L576.65 387.17L568 387.17Z M576 401.17L584.65 401.17L584.65 387.17L576 387.17Z M584 401.17L592.65 401.17L592.65 387.17L584 387.17Z M592 401.17L600.65 401.17L600.65 387.17L592 387.17Z M600 401.17L608.65 401.17L608.65 387.17L600 387.17Z M608 401.17L616.65 401.17L616.65 387.17L608 387.17Z M616 401.17L624.65 401.17L624.65 395.92L616 395.92Z                                            M168 417.17L176.65 417.17L176.65 408.42L168 408.42Z M176 417.17L184.65 417.17L184.65 404.92L176 404.92Z M184 417.17L192.65 417.17L192.65 404.92L184 404.92Z M192 417.17L200.65 417.17L200.65 406.67L192 406.67Z M200 417.17L208.65 417.17L208.65 410.17L200 410.17Z M208 417.17L216.65 417.17L216.65 410.17L208 410.17Z M216 417.17L224.65 417.17L224.65 410.17L216 410.17Z M224 417.17L232.65 417.17L232.65 410.17L224 410.17Z M232 417.17L240.65 417.17L240.65 410.17L232 410.17Z M240 417.17L248.65 417.17L248.65 410.17L240 410.17Z M248 417.17L256.65 417.17L256.65 410.17L248 410.17Z M256 417.17L264.65 417.17L264.65 410.17L256 410.17Z M264 417.17L272.65 417.17L272.65 410.17L264 410.17Z M272 417.17L280.65 417.17L280.65 410.17L272 410.17Z M280 417.17L288.65 417.17L288.65 410.17L280 410.17Z M288 417.17L296.65 417.17L296.65 410.17L288 410.17Z M296 417.17L304.65 417.17L304.65 410.17L296 410.17Z M304 417.17L312.65 417.17L312.65 410.17L304 410.17Z M312 417.17L320.65 417.17L320.65 410.17L312 410.17Z M320 417.17L328.65 417.17L328.65 410.17L320 410.17Z M328 417.17L336.65 417.17L336.65 410.17L328 410.17Z M336 417.17L344.65 417.17L344.65 410.17L336 410.17Z M344 417.17L352.65 417.17L352.65 410.17L344 410.17Z M352 417.17L360.65 417.17L360.65 410.17L352 410.17Z M360 417.17L368.65 417.17L368.65 410.17L360 410.17Z M368 417.17L376.65 417.17L376.65 410.17L368 410.17Z M376 417.17L384.65 417.17L384.65 410.17L376 410.17Z M384 417.17L392.65 417.17L392.65 408.42L384 408.42Z M392 417.17L400.65 417.17L400.65 410.17L392 410.17Z M400 417.17L408.65 417.17L408.65 410.17L400 410.17Z M408 417.17L416.65 417.17L416.65 410.17L408 410.17Z M416 417.17L424.65 417.17L424.65 410.17L416 410.17Z M424 417.17L432.65 417.17L432.65 410.17L424 410.17Z M432 417.17L440.65 417.17L440.65 410.17L432 410.17Z M440 417.17L448.65 417.17L448.65 410.17L440 410.17Z M448 417.17L456.65 417.17L456.65 410.17L448 410.17Z M456 417.17L464.65 417.17L464.65 406.67L456 406.67Z M464 417.17L472.65 417.17L472.65 413.67L464 413.67Z M472 417.17L480.65 417.17L480.65 404.92L472 404.92Z M480 417.17L488.65 417.17L488.65 408.42L480 408.42Z      M528 417.17L536.65 417.17L536.65 415.42L528 415.42Z M536 417.17L544.65 417.17L544.65 406.67L536 406.67Z M544 417.17L552.65 417.17L552.65 410.17L544 410.17Z M552 417.17L560.65 417.17L560.65 410.17L552 410.17Z M560 417.17L568.65 417.17L568.65 410.17L560 410.17Z M568 417.17L576.65 417.17L576.65 410.17L568 410.17Z M576 417.17L584.65 417.17L584.65 408.42L576 408.42Z M584 417.17L592.65 417.17L592.65 404.92L584 404.92Z M592 417.17L600.65 417.17L600.65 404.92L592 404.92Z M600 417.17L608.65 417.17L608.65 404.92L600 404.92Z M608 417.17L616.65 417.17L616.65 403.17L608 403.17Z M616 417.17L624.65 417.17L624.65 411.92L616 411.92Z                                            M168 433.17L176.65 433.17L176.65 424.42L168 424.42Z M176 433.17L184.65 433.17L184.65 422.67L176 422.67Z M184 433.17L192.65 433.17L192.65 422.67L184 422.67Z M192 433.17L200.65 433.17L200.65 427.92L192 427.92Z                                 M456 433.17L464.65 433.17L464.65 422.67L456 422.67Z         M528 433.17L536.65 433.17L536.65 431.42L528 431.42Z M536 433.17L544.65 433.17L544.65 426.17L536 426.17Z    M568 433.17L576.65 433.17L576.65 431.42L568 431.42Z M576 433.17L584.65 433.17L584.65 426.17L576 426.17Z M584 433.17L592.65 433.17L592.65 422.67L584 422.67Z M592 433.17L600.65 433.17L600.65 424.42L592 424.42Z M600 433.17L608.65 433.17L608.65 420.92L600 420.92Z M608 433.17L616.65 433.17L616.65 420.92L608 420.92Z M616 433.17L624.65 433.17L624.65 427.92L616 427.92Z                                            M168 449.17L176.65 449.17L176.65 445.67L168 445.67Z M176 449.17L184.65 449.17L184.65 436.92L176 436.92Z M184 449.17L192.65 449.17L192.65 436.92L184 436.92Z M192 449.17L200.65 449.17L200.65 436.92L192 436.92Z M200 449.17L208.65 449.17L208.65 436.92L200 436.92Z M208 449.17L216.65 449.17L216.65 438.67L208 438.67Z M216 449.17L224.65 449.17L224.65 443.92L216 443.92Z M224 449.17L232.65 449.17L232.65 443.92L224 443.92Z M232 449.17L240.65 449.17L240.65 443.92L232 443.92Z M240 449.17L248.65 449.17L248.65 443.92L240 443.92Z M248 449.17L256.65 449.17L256.65 443.92L248 443.92Z M256 449.17L264.65 449.17L264.65 443.92L256 443.92Z M264 449.17L272.65 449.17L272.65 443.92L264 443.92Z M272 449.17L280.65 449.17L280.65 443.92L272 443.92Z M280 449.17L288.65 449.17L288.65 443.92L280 443.92Z M288 449.17L296.65 449.17L296.65 443.92L288 443.92Z M296 449.17L304.65 449.17L304.65 443.92L296 443.92Z M304 449.17L312.65 449.17L312.65 443.92L304 443.92Z M312 449.17L320.65 449.17L320.65 443.92L312 443.92Z M320 449.17L328.65 449.17L328.65 443.92L320 443.92Z M328 449.17L336.65 449.17L336.65 443.92L328 443.92Z M336 449.17L344.65 449.17L344.65 443.92L336 443.92Z M344 449.17L352.65 449.17L352.65 443.92L344 443.92Z M352 449.17L360.65 449.17L360.65 443.92L352 443.92Z M360 449.17L368.65 449.17L368.65 443.92L360 443.92Z M368 449.17L376.65 449.17L376.65 443.92L368 443.92Z M376 449.17L384.65 449.17L384.65 443.92L376 443.92Z M384 449.17L392.65 449.17L392.65 443.92L384 443.92Z M392 449.17L400.65 449.17L400.65 443.92L392 443.92Z M400 449.17L408.65 449.17L408.65 443.92L400 443.92Z M408 449.17L416.65 449.17L416.65 443.92L408 443.92Z M416 449.17L424.65 449.17L424.65 443.92L416 443.92Z M424 449.17L432.65 449.17L432.65 443.92L424 443.92Z M432 449.17L440.65 449.17L440.65 443.92L432 443.92Z M440 449.17L448.65 449.17L448.65 443.92L440 443.92Z M448 449.17L456.65 449.17L456.65 443.92L448 443.92Z M456 449.17L464.65 449.17L464.65 436.92L456 436.92Z M464 449.17L472.65 449.17L472.65 443.92L464 443.92Z M472 449.17L480.65 449.17L480.65 443.92L472 443.92Z M480 449.17L488.65 449.17L488.65 443.92L480 443.92Z M488 449.17L496.65 449.17L496.65 443.92L488 443.92Z M496 449.17L504.65 449.17L504.65 443.92L496 443.92Z M504 449.17L512.65 449.17L512.65 443.92L504 443.92Z M512 449.17L520.65 449.17L520.65 443.92L512 443.92Z M520 449.17L528.65 449.17L528.65 443.92L520 443.92Z M528 449.17L536.65 449.17L536.65 442.17L528 442.17Z M536 449.17L544.65 449.17L544.65 438.67L536 438.67Z M544 449.17L552.65 449.17L552.65 443.92L544 443.92Z M552 449.17L560.65 449.17L560.65 443.92L552 443.92Z M560 449.17L568.65 449.17L568.65 443.92L560 443.92Z M568 449.17L576.65 449.17L576.65 442.17L568 442.17Z M576 449.17L584.65 449.17L584.65 436.92L576 436.92Z M584 449.17L592.65 449.17L592.65 436.92L584 436.92Z M592 449.17L600.65 449.17L600.65 435.17L592 435.17Z M600 449.17L608.65 449.17L608.65 435.17L600 435.17Z M608 449.17L616.65 449.17L616.65 438.67L608 438.67Z M616 449.17L624.65 449.17L624.65 447.42L616 447.42Z                                             M176 465.17L184.65 465.17L184.65 454.67L176 454.67Z M184 465.17L192.65 465.17L192.65 451.17L184 451.17Z M192 465.17L200.65 465.17L200.65 451.17L192 451.17Z M200 465.17L208.65 465.17L208.65 451.17L200 451.17Z M208 465.17L216.65 465.17L216.65 451.17L208 451.17Z M216 465.17L224.65 465.17L224.65 454.67L216 454.67Z M224 465.17L232.65 465.17L232.65 458.17L224 458.17Z M232 465.17L240.65 465.17L240.65 458.17L232 458.17Z M240 465.17L248.65 465.17L248.65 458.17L240 458.17Z M248 465.17L256.65 465.17L256.65 458.17L248 458.17Z M256 465.17L264.65 465.17L264.65 458.17L256 458.17Z M264 465.17L272.65 465.17L272.65 458.17L264 458.17Z M272 465.17L280.65 465.17L280.65 458.17L272 458.17Z M280 465.17L288.65 465.17L288.65 458.17L280 458.17Z M288 465.17L296.65 465.17L296.65 458.17L288 458.17Z M296 465.17L304.65 465.17L304.65 458.17L296 458.17Z M304 465.17L312.65 465.17L312.65 458.17L304 458.17Z M312 465.17L320.65 465.17L320.65 458.17L312 458.17Z M320 465.17L328.65 465.17L328.65 458.17L320 458.17Z M328 465.17L336.65 465.17L336.65 458.17L328 458.17Z M336 465.17L344.65 465.17L344.65 458.17L336 458.17Z M344 465.17L352.65 465.17L352.65 458.17L344 458.17Z M352 465.17L360.65 465.17L360.65 458.17L352 458.17Z M360 465.17L368.65 465.17L368.65 458.17L360 458.17Z M368 465.17L376.65 465.17L376.65 458.17L368 458.17Z M376 465.17L384.65 465.17L384.65 458.17L376 458.17Z M384 465.17L392.65 465.17L392.65 458.17L384 458.17Z M392 465.17L400.65 465.17L400.65 458.17L392 458.17Z M400 465.17L408.65 465.17L408.65 458.17L400 458.17Z M408 465.17L416.65 465.17L416.65 458.17L408 458.17Z M416 465.17L424.65 465.17L424.65 458.17L416 458.17Z M424 465.17L432.65 465.17L432.65 458.17L424 458.17Z M432 465.17L440.65 465.17L440.65 458.17L432 458.17Z M440 465.17L448.65 465.17L448.65 458.17L440 458.17Z M448 465.17L456.65 465.17L456.65 458.17L448 458.17Z M456 465.17L464.65 465.17L464.65 451.17L456 451.17Z M464 465.17L472.65 465.17L472.65 458.17L464 458.17Z M472 465.17L480.65 465.17L480.65 458.17L472 458.17Z M480 465.17L488.65 465.17L488.65 458.17L480 458.17Z M488 465.17L496.65 465.17L496.65 458.17L488 458.17Z M496 465.17L504.65 465.17L504.65 458.17L496 458.17Z M504 465.17L512.65 465.17L512.65 458.17L504 458.17Z M512 465.17L520.65 465.17L520.65 458.17L512 458.17Z M520 465.17L528.65 465.17L528.65 458.17L520 458.17Z M528 465.17L536.65 465.17L536.65 456.42L528 456.42Z M536 465.17L544.65 465.17L544.65 452.92L536 452.92Z M544 465.17L552.65 465.17L552.65 458.17L544 458.17Z M552 465.17L560.65 465.17L560.65 458.17L552 458.17Z M560 465.17L568.65 465.17L568.65 458.17L560 458.17Z M568 465.17L576.65 465.17L576.65 452.92L568 452.92Z M576 465.17L584.65 465.17L584.65 451.17L576 451.17Z M584 465.17L592.65 465.17L592.65 451.17L584 451.17Z M592 465.17L600.65 465.17L600.65 451.17L592 451.17Z M600 465.17L608.65 465.17L608.65 451.17L600 451.17Z M608 465.17L616.65 465.17L616.65 459.92L608 459.92Z                                              M176 481.17L184.65 481.17L184.65 477.67L176 477.67Z M184 481.17L192.65 481.17L192.65 467.17L184 467.17Z M192 481.17L200.65 481.17L200.65 467.17L192 467.17Z M200 481.17L208.65 481.17L208.65 467.17L200 467.17Z M208 481.17L216.65 481.17L216.65 467.17L208 467.17Z M216 481.17L224.65 481.17L224.65 467.17L216 467.17Z M224 481.17L232.65 481.17L232.65 467.17L224 467.17Z M232 481.17L240.65 481.17L240.65 467.17L232 467.17Z M240 481.17L248.65 481.17L248.65 467.17L240 467.17Z M248 481.17L256.65 481.17L256.65 467.17L248 467.17Z M256 481.17L264.65 481.17L264.65 467.17L256 467.17Z M264 481.17L272.65 481.17L272.65 467.17L264 467.17Z M272 481.17L280.65 481.17L280.65 467.17L272 467.17Z M280 481.17L288.65 481.17L288.65 467.17L280 467.17Z M288 481.17L296.65 481.17L296.65 467.17L288 467.17Z M296 481.17L304.65 481.17L304.65 467.17L296 467.17Z M304 481.17L312.65 481.17L312.65 467.17L304 467.17Z M312 481.17L320.65 481.17L320.65 467.17L312 467.17Z M320 481.17L328.65 481.17L328.65 467.17L320 467.17Z M328 481.17L336.65 481.17L336.65 467.17L328 467.17Z M336 481.17L344.65 481.17L344.65 467.17L336 467.17Z M344 481.17L352.65 481.17L352.65 467.17L344 467.17Z M352 481.17L360.65 481.17L360.65 467.17L352 467.17Z M360 481.17L368.65 481.17L368.65 467.17L360 467.17Z M368 481.17L376.65 481.17L376.65 467.17L368 467.17Z M376 481.17L384.65 481.17L384.65 467.17L376 467.17Z M384 481.17L392.65 481.17L392.65 467.17L384 467.17Z M392 481.17L400.65 481.17L400.65 467.17L392 467.17Z M400 481.17L408.65 481.17L408.65 467.17L400 467.17Z M408 481.17L416.65 481.17L416.65 467.17L408 467.17Z M416 481.17L424.65 481.17L424.65 467.17L416 467.17Z M424 481.17L432.65 481.17L432.65 467.17L424 467.17Z M432 481.17L440.65 481.17L440.65 467.17L432 467.17Z M440 481.17L448.65 481.17L448.65 467.17L440 467.17Z M448 481.17L456.65 481.17L456.65 468.92L448 468.92Z M456 481.17L464.65 481.17L464.65 467.17L456 467.17Z M464 481.17L472.65 481.17L472.65 467.17L464 467.17Z M472 481.17L480.65 481.17L480.65 467.17L472 467.17Z M480 481.17L488.65 481.17L488.65 467.17L480 467.17Z M488 481.17L496.65 481.17L496.65 467.17L488 467.17Z M496 481.17L504.65 481.17L504.65 467.17L496 467.17Z M504 481.17L512.65 481.17L512.65 467.17L504 467.17Z M512 481.17L520.65 481.17L520.65 467.17L512 467.17Z M520 481.17L528.65 481.17L528.65 467.17L520 467.17Z M528 481.17L536.65 481.17L536.65 467.17L528 467.17Z M536 481.17L544.65 481.17L544.65 467.17L536 467.17Z M544 481.17L552.65 481.17L552.65 467.17L544 467.17Z M552 481.17L560.65 481.17L560.65 467.17L552 467.17Z M560 481.17L568.65 481.17L568.65 467.17L560 467.17Z M568 481.17L576.65 481.17L576.65 467.17L568 467.17Z M576 481.17L584.65 481.17L584.65 467.17L576 467.17Z M584 481.17L592.65 481.17L592.65 467.17L584 467.17Z M592 481.17L600.65 481.17L600.65 467.17L592 467.17Z M600 481.17L608.65 481.17L608.65 472.42L600 472.42Z M608 481.17L616.65 481.17L616.65 479.42L608 479.42Z M616 481.17L624.65 481.17L624.65 474.17L616 474.17Z M624 481.17L632.65 481.17L632.65 475.92L624 475.92Z                                             M184 497.17L192.65 497.17L192.65 490.17L184 490.17Z M192 497.17L200.65 497.17L200.65 483.17L192 483.17Z M200 497.17L208.65 497.17L208.65 483.17L200 483.17Z M208 497.17L216.65 497.17L216.65 483.17L208 483.17Z M216 497.17L224.65 497.17L224.65 483.17L216 483.17Z M224 497.17L232.65 497.17L232.65 483.17L224 483.17Z M232 497.17L240.65 497.17L240.65 483.17L232 483.17Z M240 497.17L248.65 497.17L248.65 483.17L240 483.17Z M248 497.17L256.65 497.17L256.65 483.17L248 483.17Z M256 497.17L264.65 497.17L264.65 483.17L256 483.17Z M264 497.17L272.65 497.17L272.65 483.17L264 483.17Z M272 497.17L280.65 497.17L280.65 483.17L272 483.17Z M280 497.17L288.65 497.17L288.65 483.17L280 483.17Z M288 497.17L296.65 497.17L296.65 483.17L288 483.17Z M296 497.17L304.65 497.17L304.65 483.17L296 483.17Z M304 497.17L312.65 497.17L312.65 483.17L304 483.17Z M312 497.17L320.65 497.17L320.65 483.17L312 483.17Z M320 497.17L328.65 497.17L328.65 483.17L320 483.17Z M328 497.17L336.65 497.17L336.65 483.17L328 483.17Z M336 497.17L344.65 497.17L344.65 483.17L336 483.17Z M344 497.17L352.65 497.17L352.65 483.17L344 483.17Z M352 497.17L360.65 497.17L360.65 483.17L352 483.17Z M360 497.17L368.65 497.17L368.65 483.17L360 483.17Z M368 497.17L376.65 497.17L376.65 483.17L368 483.17Z M376 497.17L384.65 497.17L384.65 483.17L376 483.17Z M384 497.17L392.65 497.17L392.65 483.17L384 483.17Z M392 497.17L400.65 497.17L400.65 483.17L392 483.17Z M400 497.17L408.65 497.17L408.65 483.17L400 483.17Z M408 497.17L416.65 497.17L416.65 483.17L408 483.17Z M416 497.17L424.65 497.17L424.65 483.17L416 483.17Z M424 497.17L432.65 497.17L432.65 483.17L424 483.17Z M432 497.17L440.65 497.17L440.65 483.17L432 483.17Z M440 497.17L448.65 497.17L448.65 483.17L440 483.17Z M448 497.17L456.65 497.17L456.65 483.17L448 483.17Z M456 497.17L464.65 497.17L464.65 483.17L456 483.17Z M464 497.17L472.65 497.17L472.65 483.17L464 483.17Z M472 497.17L480.65 497.17L480.65 483.17L472 483.17Z M480 497.17L488.65 497.17L488.65 483.17L480 483.17Z M488 497.17L496.65 497.17L496.65 483.17L488 483.17Z M496 497.17L504.65 497.17L504.65 483.17L496 483.17Z M504 497.17L512.65 497.17L512.65 483.17L504 483.17Z M512 497.17L520.65 497.17L520.65 483.17L512 483.17Z M520 497.17L528.65 497.17L528.65 483.17L520 483.17Z M528 497.17L536.65 497.17L536.65 483.17L528 483.17Z M536 497.17L544.65 497.17L544.65 483.17L536 483.17Z M544 497.17L552.65 497.17L552.65 483.17L544 483.17Z M552 497.17L560.65 497.17L560.65 483.17L552 483.17Z M560 497.17L568.65 497.17L568.65 483.17L560 483.17Z M568 497.17L576.65 497.17L576.65 483.17L568 483.17Z M576 497.17L584.65 497.17L584.65 483.17L576 483.17Z M584 497.17L592.65 497.17L592.65 483.17L584 483.17Z M592 497.17L600.65 497.17L600.65 484.92L592 484.92Z M600 497.17L608.65 497.17L608.65 493.67L600 493.67Z  M616 497.17L624.65 497.17L624.65 490.17L616 490.17Z M624 497.17L632.65 497.17L632.65 486.67L624 486.67Z M632 497.17L640.65 497.17L640.65 495.42L632 495.42Z M640 497.17L648.65 497.17L648.65 493.67L640 493.67Z M648 497.17L656.65 497.17L656.65 491.92L648 491.92Z M656 497.17L664.65 497.17L664.65 495.42L656 495.42Z                                          M192 513.17L200.65 513.17L200.65 506.17L192 506.17Z M200 513.17L208.65 513.17L208.65 499.17L200 499.17Z M208 513.17L216.65 513.17L216.65 499.17L208 499.17Z M216 513.17L224.65 513.17L224.65 499.17L216 499.17Z M224 513.17L232.65 513.17L232.65 499.17L224 499.17Z M232 513.17L240.65 513.17L240.65 499.17L232 499.17Z M240 513.17L248.65 513.17L248.65 499.17L240 499.17Z M248 513.17L256.65 513.17L256.65 499.17L248 499.17Z M256 513.17L264.65 513.17L264.65 499.17L256 499.17Z M264 513.17L272.65 513.17L272.65 499.17L264 499.17Z M272 513.17L280.65 513.17L280.65 499.17L272 499.17Z M280 513.17L288.65 513.17L288.65 499.17L280 499.17Z M288 513.17L296.65 513.17L296.65 499.17L288 499.17Z M296 513.17L304.65 513.17L304.65 499.17L296 499.17Z M304 513.17L312.65 513.17L312.65 499.17L304 499.17Z M312 513.17L320.65 513.17L320.65 499.17L312 499.17Z M320 513.17L328.65 513.17L328.65 499.17L320 499.17Z M328 513.17L336.65 513.17L336.65 499.17L328 499.17Z M336 513.17L344.65 513.17L344.65 499.17L336 499.17Z M344 513.17L352.65 513.17L352.65 499.17L344 499.17Z M352 513.17L360.65 513.17L360.65 500.92L352 500.92Z M360 513.17L368.65 513.17L368.65 502.67L360 502.67Z M368 513.17L376.65 513.17L376.65 502.67L368 502.67Z M376 513.17L384.65 513.17L384.65 499.17L376 499.17Z M384 513.17L392.65 513.17L392.65 499.17L384 499.17Z M392 513.17L400.65 513.17L400.65 499.17L392 499.17Z M400 513.17L408.65 513.17L408.65 499.17L400 499.17Z M408 513.17L416.65 513.17L416.65 499.17L408 499.17Z M416 513.17L424.65 513.17L424.65 499.17L416 499.17Z M424 513.17L432.65 513.17L432.65 499.17L424 499.17Z M432 513.17L440.65 513.17L440.65 499.17L432 499.17Z M440 513.17L448.65 513.17L448.65 499.17L440 499.17Z M448 513.17L456.65 513.17L456.65 499.17L448 499.17Z M456 513.17L464.65 513.17L464.65 499.17L456 499.17Z M464 513.17L472.65 513.17L472.65 499.17L464 499.17Z M472 513.17L480.65 513.17L480.65 499.17L472 499.17Z M480 513.17L488.65 513.17L488.65 499.17L480 499.17Z M488 513.17L496.65 513.17L496.65 499.17L488 499.17Z M496 513.17L504.65 513.17L504.65 499.17L496 499.17Z M504 513.17L512.65 513.17L512.65 499.17L504 499.17Z M512 513.17L520.65 513.17L520.65 499.17L512 499.17Z M520 513.17L528.65 513.17L528.65 499.17L520 499.17Z M528 513.17L536.65 513.17L536.65 499.17L528 499.17Z M536 513.17L544.65 513.17L544.65 499.17L536 499.17Z M544 513.17L552.65 513.17L552.65 499.17L544 499.17Z M552 513.17L560.65 513.17L560.65 499.17L552 499.17Z M560 513.17L568.65 513.17L568.65 499.17L560 499.17Z M568 513.17L576.65 513.17L576.65 499.17L568 499.17Z M576 513.17L584.65 513.17L584.65 499.17L576 499.17Z M584 513.17L592.65 513.17L592.65 499.17L584 499.17Z M592 513.17L600.65 513.17L600.65 506.17L592 506.17Z M600 513.17L608.65 513.17L608.65 507.92L600 507.92Z M608 513.17L616.65 513.17L616.65 507.92L608 507.92Z M616 513.17L624.65 513.17L624.65 504.42L616 504.42Z M624 513.17L632.65 513.17L632.65 500.92L624 500.92Z M632 513.17L640.65 513.17L640.65 504.42L632 504.42Z M640 513.17L648.65 513.17L648.65 500.92L640 500.92Z M648 513.17L656.65 513.17L656.65 502.67L648 502.67Z M656 513.17L664.65 513.17L664.65 506.17L656 506.17Z M664 513.17L672.65 513.17L672.65 511.42L664 511.42Z                                          M200 529.17L208.65 529.17L208.65 527.42L200 527.42Z M208 529.17L216.65 529.17L216.65 523.92L208 523.92Z M216 529.17L224.65 529.17L224.65 518.67L216 518.67Z M224 529.17L232.65 529.17L232.65 518.67L224 518.67Z M232 529.17L240.65 529.17L240.65 516.92L232 516.92Z M240 529.17L248.65 529.17L248.65 516.92L240 516.92Z M248 529.17L256.65 529.17L256.65 516.92L248 516.92Z M256 529.17L264.65 529.17L264.65 515.17L256 515.17Z M264 529.17L272.65 529.17L272.65 515.17L264 515.17Z M272 529.17L280.65 529.17L280.65 515.17L272 515.17Z M280 529.17L288.65 529.17L288.65 515.17L280 515.17Z M288 529.17L296.65 529.17L296.65 515.17L288 515.17Z M296 529.17L304.65 529.17L304.65 515.17L296 515.17Z M304 529.17L312.65 529.17L312.65 515.17L304 515.17Z M312 529.17L320.65 529.17L320.65 515.17L312 515.17Z M320 529.17L328.65 529.17L328.65 515.17L320 515.17Z M328 529.17L336.65 529.17L336.65 515.17L328 515.17Z M336 529.17L344.65 529.17L344.65 515.17L336 515.17Z M344 529.17L352.65 529.17L352.65 520.42L344 520.42Z M352 529.17L360.65 529.17L360.65 516.92L352 516.92Z M360 529.17L368.65 529.17L368.65 525.67L360 525.67Z M368 529.17L376.65 529.17L376.65 523.92L368 523.92Z M376 529.17L384.65 529.17L384.65 522.17L376 522.17Z M384 529.17L392.65 529.17L392.65 515.17L384 515.17Z M392 529.17L400.65 529.17L400.65 515.17L392 515.17Z M400 529.17L408.65 529.17L408.65 515.17L400 515.17Z M408 529.17L416.65 529.17L416.65 515.17L408 515.17Z M416 529.17L424.65 529.17L424.65 515.17L416 515.17Z M424 529.17L432.65 529.17L432.65 515.17L424 515.17Z M432 529.17L440.65 529.17L440.65 515.17L432 515.17Z M440 529.17L448.65 529.17L448.65 515.17L440 515.17Z M448 529.17L456.65 529.17L456.65 515.17L448 515.17Z M456 529.17L464.65 529.17L464.65 515.17L456 515.17Z M464 529.17L472.65 529.17L472.65 515.17L464 515.17Z M472 529.17L480.65 529.17L480.65 515.17L472 515.17Z M480 529.17L488.65 529.17L488.65 515.17L480 515.17Z M488 529.17L496.65 529.17L496.65 515.17L488 515.17Z M496 529.17L504.65 529.17L504.65 515.17L496 515.17Z M504 529.17L512.65 529.17L512.65 515.17L504 515.17Z M512 529.17L520.65 529.17L520.65 515.17L512 515.17Z M520 529.17L528.65 529.17L528.65 515.17L520 515.17Z M528 529.17L536.65 529.17L536.65 515.17L528 515.17Z M536 529.17L544.65 529.17L544.65 515.17L536 515.17Z M544 529.17L552.65 529.17L552.65 515.17L544 515.17Z M552 529.17L560.65 529.17L560.65 515.17L552 515.17Z M560 529.17L568.65 529.17L568.65 518.67L560 518.67Z M568 529.17L576.65 529.17L576.65 518.67L568 518.67Z M576 529.17L584.65 529.17L584.65 518.67L576 518.67Z M584 529.17L592.65 529.17L592.65 518.67L584 518.67Z M592 529.17L600.65 529.17L600.65 518.67L592 518.67Z M600 529.17L608.65 529.17L608.65 518.67L600 518.67Z M608 529.17L616.65 529.17L616.65 518.67L608 518.67Z M616 529.17L624.65 529.17L624.65 516.92L616 516.92Z M624 529.17L632.65 529.17L632.65 515.17L624 515.17Z M632 529.17L640.65 529.17L640.65 518.67L632 518.67Z M640 529.17L648.65 529.17L648.65 518.67L640 518.67Z M648 529.17L656.65 529.17L656.65 522.17L648 522.17Z M656 529.17L664.65 529.17L664.65 523.92L656 523.92Z M664 529.17L672.65 529.17L672.65 527.42L664 527.42Z                                                 M256 545.17L264.65 545.17L264.65 543.42L256 543.42Z M264 545.17L272.65 545.17L272.65 541.67L264 541.67Z M272 545.17L280.65 545.17L280.65 541.67L272 541.67Z M280 545.17L288.65 545.17L288.65 541.67L280 541.67Z M288 545.17L296.65 545.17L296.65 541.67L288 541.67Z M296 545.17L304.65 545.17L304.65 541.67L296 541.67Z M304 545.17L312.65 545.17L312.65 541.67L304 541.67Z M312 545.17L320.65 545.17L320.65 541.67L312 541.67Z M320 545.17L328.65 545.17L328.65 539.92L320 539.92Z M328 545.17L336.65 545.17L336.65 531.17L328 531.17Z M336 545.17L344.65 545.17L344.65 531.17L336 531.17Z M344 545.17L352.65 545.17L352.65 532.92L344 532.92Z M352 545.17L360.65 545.17L360.65 536.42L352 536.42Z M360 545.17L368.65 545.17L368.65 538.17L360 538.17Z M368 545.17L376.65 545.17L376.65 538.17L368 538.17Z M376 545.17L384.65 545.17L384.65 536.42L376 536.42Z M384 545.17L392.65 545.17L392.65 531.17L384 531.17Z M392 545.17L400.65 545.17L400.65 531.17L392 531.17Z M400 545.17L408.65 545.17L408.65 532.92L400 532.92Z M408 545.17L416.65 545.17L416.65 541.67L408 541.67Z M416 545.17L424.65 545.17L424.65 541.67L416 541.67Z M424 545.17L432.65 545.17L432.65 541.67L424 541.67Z M432 545.17L440.65 545.17L440.65 541.67L432 541.67Z M440 545.17L448.65 545.17L448.65 541.67L440 541.67Z M448 545.17L456.65 545.17L456.65 541.67L448 541.67Z M456 545.17L464.65 545.17L464.65 532.92L456 532.92Z M464 545.17L472.65 545.17L472.65 536.42L464 536.42Z M472 545.17L480.65 545.17L480.65 536.42L472 536.42Z M480 545.17L488.65 545.17L488.65 536.42L480 536.42Z M488 545.17L496.65 545.17L496.65 536.42L488 536.42Z M496 545.17L504.65 545.17L504.65 536.42L496 536.42Z M504 545.17L512.65 545.17L512.65 536.42L504 536.42Z M512 545.17L520.65 545.17L520.65 536.42L512 536.42Z M520 545.17L528.65 545.17L528.65 536.42L520 536.42Z M528 545.17L536.65 545.17L536.65 534.67L528 534.67Z M536 545.17L544.65 545.17L544.65 538.17L536 538.17Z M544 545.17L552.65 545.17L552.65 541.67L544 541.67Z M552 545.17L560.65 545.17L560.65 541.67L552 541.67Z M560 545.17L568.65 545.17L568.65 543.42L560 543.42Z       M616 545.17L624.65 545.17L624.65 538.17L616 538.17Z M624 545.17L632.65 545.17L632.65 536.42L624 536.42Z                                         M152 561.17L160.65 561.17L160.65 559.42L152 559.42Z M160 561.17L168.65 561.17L168.65 555.92L160 555.92Z M168 561.17L176.65 561.17L176.65 554.17L168 554.17Z M176 561.17L184.65 561.17L184.65 554.17L176 554.17Z M184 561.17L192.65 561.17L192.65 554.17L184 554.17Z M192 561.17L200.65 561.17L200.65 552.42L192 552.42Z M200 561.17L208.65 561.17L208.65 552.42L200 552.42Z M208 561.17L216.65 561.17L216.65 552.42L208 552.42Z M216 561.17L224.65 561.17L224.65 552.42L216 552.42Z M224 561.17L232.65 561.17L232.65 552.42L224 552.42Z M232 561.17L240.65 561.17L240.65 552.42L232 552.42Z M240 561.17L248.65 561.17L248.65 552.42L240 552.42Z M248 561.17L256.65 561.17L256.65 552.42L248 552.42Z M256 561.17L264.65 561.17L264.65 552.42L256 552.42Z M264 561.17L272.65 561.17L272.65 552.42L264 552.42Z M272 561.17L280.65 561.17L280.65 552.42L272 552.42Z M280 561.17L288.65 561.17L288.65 552.42L280 552.42Z M288 561.17L296.65 561.17L296.65 552.42L288 552.42Z M296 561.17L304.65 561.17L304.65 552.42L296 552.42Z M304 561.17L312.65 561.17L312.65 552.42L304 552.42Z M312 561.17L320.65 561.17L320.65 552.42L312 552.42Z M320 561.17L328.65 561.17L328.65 552.42L320 552.42Z M328 561.17L336.65 561.17L336.65 548.92L328 548.92Z M336 561.17L344.65 561.17L344.65 547.17L336 547.17Z M344 561.17L352.65 561.17L352.65 547.17L344 547.17Z M352 561.17L360.65 561.17L360.65 547.17L352 547.17Z M360 561.17L368.65 561.17L368.65 547.17L360 547.17Z M368 561.17L376.65 561.17L376.65 547.17L368 547.17Z M376 561.17L384.65 561.17L384.65 547.17L376 547.17Z M384 561.17L392.65 561.17L392.65 547.17L384 547.17Z M392 561.17L400.65 561.17L400.65 547.17L392 547.17Z M400 561.17L408.65 561.17L408.65 550.67L400 550.67Z M408 561.17L416.65 561.17L416.65 552.42L408 552.42Z M416 561.17L424.65 561.17L424.65 552.42L416 552.42Z M424 561.17L432.65 561.17L432.65 552.42L424 552.42Z M432 561.17L440.65 561.17L440.65 552.42L432 552.42Z M440 561.17L448.65 561.17L448.65 552.42L440 552.42Z M448 561.17L456.65 561.17L456.65 552.42L448 552.42Z M456 561.17L464.65 561.17L464.65 550.67L456 550.67Z M464 561.17L472.65 561.17L472.65 550.67L464 550.67Z M472 561.17L480.65 561.17L480.65 550.67L472 550.67Z M480 561.17L488.65 561.17L488.65 550.67L480 550.67Z M488 561.17L496.65 561.17L496.65 550.67L488 550.67Z M496 561.17L504.65 561.17L504.65 550.67L496 550.67Z M504 561.17L512.65 561.17L512.65 550.67L504 550.67Z M512 561.17L520.65 561.17L520.65 550.67L512 550.67Z M520 561.17L528.65 561.17L528.65 550.67L520 550.67Z M528 561.17L536.65 561.17L536.65 550.67L528 550.67Z M536 561.17L544.65 561.17L544.65 550.67L536 550.67Z M544 561.17L552.65 561.17L552.65 552.42L544 552.42Z M552 561.17L560.65 561.17L560.65 552.42L552 552.42Z M560 561.17L568.65 561.17L568.65 552.42L560 552.42Z M568 561.17L576.65 561.17L576.65 552.42L568 552.42Z M576 561.17L584.65 561.17L584.65 552.42L576 552.42Z M584 561.17L592.65 561.17L592.65 552.42L584 552.42Z M592 561.17L600.65 561.17L600.65 552.42L592 552.42Z M600 561.17L608.65 561.17L608.65 552.42L600 552.42Z M608 561.17L616.65 561.17L616.65 552.42L608 552.42Z M616 561.17L624.65 561.17L624.65 550.67L616 550.67Z M624 561.17L632.65 561.17L632.65 548.92L624 548.92Z M632 561.17L640.65 561.17L640.65 554.17L632 554.17Z M640 561.17L648.65 561.17L648.65 555.92L640 555.92Z M648 561.17L656.65 561.17L656.65 557.67L648 557.67Z M656 561.17L664.65 561.17L664.65 559.42L656 559.42Z                                  M128 577.17L136.65 577.17L136.65 575.42L128 575.42Z    M160 577.17L168.65 577.17L168.65 575.42L160 575.42Z  M176 577.17L184.65 577.17L184.65 575.42L176 575.42Z M184 577.17L192.65 577.17L192.65 575.42L184 575.42Z M192 577.17L200.65 577.17L200.65 573.67L192 573.67Z M200 577.17L208.65 577.17L208.65 571.92L200 571.92Z M208 577.17L216.65 577.17L216.65 571.92L208 571.92Z M216 577.17L224.65 577.17L224.65 571.92L216 571.92Z M224 577.17L232.65 577.17L232.65 571.92L224 571.92Z M232 577.17L240.65 577.17L240.65 571.92L232 571.92Z M240 577.17L248.65 577.17L248.65 571.92L240 571.92Z M248 577.17L256.65 577.17L256.65 571.92L248 571.92Z M256 577.17L264.65 577.17L264.65 571.92L256 571.92Z M264 577.17L272.65 577.17L272.65 571.92L264 571.92Z M272 577.17L280.65 577.17L280.65 571.92L272 571.92Z M280 577.17L288.65 577.17L288.65 568.42L280 568.42Z M288 577.17L296.65 577.17L296.65 568.42L288 568.42Z M296 577.17L304.65 577.17L304.65 568.42L296 568.42Z M304 577.17L312.65 577.17L312.65 568.42L304 568.42Z M312 577.17L320.65 577.17L320.65 568.42L312 568.42Z M320 577.17L328.65 577.17L328.65 568.42L320 568.42Z M328 577.17L336.65 577.17L336.65 568.42L328 568.42Z M336 577.17L344.65 577.17L344.65 568.42L336 568.42Z M344 577.17L352.65 577.17L352.65 568.42L344 568.42Z M352 577.17L360.65 577.17L360.65 568.42L352 568.42Z M360 577.17L368.65 577.17L368.65 568.42L360 568.42Z M368 577.17L376.65 577.17L376.65 568.42L368 568.42Z M376 577.17L384.65 577.17L384.65 568.42L376 568.42Z M384 577.17L392.65 577.17L392.65 568.42L384 568.42Z M392 577.17L400.65 577.17L400.65 568.42L392 568.42Z M400 577.17L408.65 577.17L408.65 568.42L400 568.42Z M408 577.17L416.65 577.17L416.65 568.42L408 568.42Z M416 577.17L424.65 577.17L424.65 568.42L416 568.42Z M424 577.17L432.65 577.17L432.65 568.42L424 568.42Z M432 577.17L440.65 577.17L440.65 568.42L432 568.42Z M440 577.17L448.65 577.17L448.65 568.42L440 568.42Z M448 577.17L456.65 577.17L456.65 568.42L448 568.42Z M456 577.17L464.65 577.17L464.65 568.42L456 568.42Z M464 577.17L472.65 577.17L472.65 568.42L464 568.42Z M472 577.17L480.65 577.17L480.65 568.42L472 568.42Z M480 577.17L488.65 577.17L488.65 568.42L480 568.42Z M488 577.17L496.65 577.17L496.65 568.42L488 568.42Z M496 577.17L504.65 577.17L504.65 568.42L496 568.42Z M504 577.17L512.65 577.17L512.65 568.42L504 568.42Z M512 577.17L520.65 577.17L520.65 568.42L512 568.42Z M520 577.17L528.65 577.17L528.65 568.42L520 568.42Z M528 577.17L536.65 577.17L536.65 570.17L528 570.17Z M536 577.17L544.65 577.17L544.65 571.92L536 571.92Z M544 577.17L552.65 577.17L552.65 571.92L544 571.92Z M552 577.17L560.65 577.17L560.65 571.92L552 571.92Z M560 577.17L568.65 577.17L568.65 571.92L560 571.92Z M568 577.17L576.65 577.17L576.65 571.92L568 571.92Z M576 577.17L584.65 577.17L584.65 571.92L576 571.92Z M584 577.17L592.65 577.17L592.65 571.92L584 571.92Z M592 577.17L600.65 577.17L600.65 571.92L592 571.92Z M600 577.17L608.65 577.17L608.65 571.92L600 571.92Z M608 577.17L616.65 577.17L616.65 571.92L608 571.92Z M616 577.17L624.65 577.17L624.65 573.67L616 573.67Z  M632 577.17L640.65 577.17L640.65 573.67L632 573.67Z                                                                                                                                                                                                                                                                                                                                                                                                                                                                                                                                                                                                                                                                                                                                                                                                                                                                                                                                                                                                                                                                                                                                                                                                                                                                                                                                                                                                                                                                             " fill="#000000"/>
  </svg>